<svg xmlns="http://www.w3.org/2000/svg" viewBox="0 0 408.81 65.49">
    <defs>
        <style>.cls-1{fill:#f2617a;}.cls-2{fill:#003d4f;}</style>
    </defs>
    <g id="Layer_2" data-name="Layer 2">
        <g id="Layer_1-2" data-name="Layer 1">
            <polygon class="cls-1" points="27.21 0 0 53.41 12.64 53.41 39.86 0 27.21 0"/>
            <path class="cls-2"
                  d="M183.81,21.38l-2.18,4.27h-.13a9.6,9.6,0,0,0-4-4A12.41,12.41,0,0,0,172,20.52a12.86,12.86,0,0,0-5.91,1.3,12.61,12.61,0,0,0-4.31,3.5,15.33,15.33,0,0,0-2.63,5.08,19.9,19.9,0,0,0-.9,6A24.67,24.67,0,0,0,159,42.6a14.41,14.41,0,0,0,2.45,5.14,11.73,11.73,0,0,0,4.27,3.47,14,14,0,0,0,6.2,1.27,13,13,0,0,0,5.54-1.21,8.64,8.64,0,0,0,4.06-3.75h.12v4.22c0,5-2.34,7.86-7,7.86s-7.14-2-8.46-3.64L163,62.25s3.6,3.24,10.41,3.24C184.7,65.49,190,60,190,51.36v-30Zm-2.64,18.93a8.87,8.87,0,0,1-1.4,2.82,7,7,0,0,1-2.35,2,7,7,0,0,1-3.28.74,6.21,6.21,0,0,1-3.41-.87,6.8,6.8,0,0,1-2.2-2.23,9,9,0,0,1-1.17-3.06,17.31,17.31,0,0,1-.35-3.44,14.34,14.34,0,0,1,.41-3.44,8.55,8.55,0,0,1,1.3-2.91,6.7,6.7,0,0,1,2.23-2,6.38,6.38,0,0,1,3.19-.74,7.2,7.2,0,0,1,3.59.8A6.44,6.44,0,0,1,180,30.12a9.37,9.37,0,0,1,1.24,3.13,17.9,17.9,0,0,1,.37,3.74A11.73,11.73,0,0,1,181.17,40.31Z"/>
            <path class="cls-2"
                  d="M66.54,9.18V25.84h.19A10.13,10.13,0,0,1,71,21.79a11.44,11.44,0,0,1,5.07-1.27,15,15,0,0,1,5.8,1,8.69,8.69,0,0,1,3.56,2.66,10.42,10.42,0,0,1,1.82,4.15,25.88,25.88,0,0,1,.53,5.42v19.7H79V35.32a11.17,11.17,0,0,0-1.24-5.91c-.82-1.31-2.29-2-4.39-2-2.4,0-4.13.72-5.21,2.14s-1.61,3.77-1.61,7V53.41H57.75V9.18Z"/>
            <path class="cls-2"
                  d="M91.47,30.46a14.87,14.87,0,0,1,3.34-5.33,15.21,15.21,0,0,1,5.2-3.41,20,20,0,0,1,13.66,0,14.56,14.56,0,0,1,8.58,8.74,19.75,19.75,0,0,1,1.18,7,19.54,19.54,0,0,1-1.18,6.94,15.15,15.15,0,0,1-3.34,5.29A14.62,14.62,0,0,1,113.67,53,20.52,20.52,0,0,1,100,53a14.72,14.72,0,0,1-5.2-3.38,14.87,14.87,0,0,1-3.34-5.29,19.32,19.32,0,0,1-1.18-6.94A19.53,19.53,0,0,1,91.47,30.46Zm8,10.71a9.81,9.81,0,0,0,1.27,3.29,6.7,6.7,0,0,0,2.38,2.32,7.26,7.26,0,0,0,3.72.87,7.42,7.42,0,0,0,3.74-.87A6.65,6.65,0,0,0,113,44.46a10,10,0,0,0,1.27-3.29,18.46,18.46,0,0,0,.37-3.74,19.07,19.07,0,0,0-.37-3.78A9.77,9.77,0,0,0,113,30.36,7.09,7.09,0,0,0,110.57,28a7.32,7.32,0,0,0-3.74-.89,6.73,6.73,0,0,0-6.1,3.21,9.57,9.57,0,0,0-1.27,3.29,19.08,19.08,0,0,0-.38,3.78A18.46,18.46,0,0,0,99.46,41.17Z"/>
            <path class="cls-2"
                  d="M147.43,53.41V49h-.18a9.93,9.93,0,0,1-4.34,4,12.88,12.88,0,0,1-5.45,1.23,15.57,15.57,0,0,1-5.79-.92,8.28,8.28,0,0,1-3.56-2.64,10.23,10.23,0,0,1-1.83-4.15,25.88,25.88,0,0,1-.53-5.42V21.38h8.8V39.47a11.21,11.21,0,0,0,1.24,5.92q1.23,1.95,4.4,2,3.59,0,5.2-2.14c1.07-1.42,1.61-3.77,1.61-7V21.38h8.79v32Z"/>
            <path class="cls-2"
                  d="M202.08,9.18V25.84h.18a10.19,10.19,0,0,1,4.28-4.05,11.44,11.44,0,0,1,5.07-1.27,15,15,0,0,1,5.8,1A8.69,8.69,0,0,1,221,24.14a10.57,10.57,0,0,1,1.83,4.15,25.9,25.9,0,0,1,.52,5.42v19.7h-8.79V35.32a11.26,11.26,0,0,0-1.24-5.91q-1.24-2-4.4-2c-2.4,0-4.13.72-5.2,2.14s-1.61,3.77-1.61,7V53.41h-8.8V9.18Z"/>
            <path class="cls-2"
                  d="M290.46,30.46A14.69,14.69,0,0,1,299,21.72a20,20,0,0,1,13.66,0,14.63,14.63,0,0,1,8.58,8.74,19.75,19.75,0,0,1,1.18,7,19.54,19.54,0,0,1-1.18,6.94,15,15,0,0,1-3.35,5.29A14.49,14.49,0,0,1,312.67,53,20.52,20.52,0,0,1,299,53a14.63,14.63,0,0,1-5.2-3.38,15,15,0,0,1-3.35-5.29,19.54,19.54,0,0,1-1.17-6.94A19.75,19.75,0,0,1,290.46,30.46Zm8,10.71a10,10,0,0,0,1.27,3.29,6.81,6.81,0,0,0,2.39,2.32,7.26,7.26,0,0,0,3.72.87,7.42,7.42,0,0,0,3.74-.87A6.73,6.73,0,0,0,312,44.46a10,10,0,0,0,1.27-3.29,18.46,18.46,0,0,0,.37-3.74,19.07,19.07,0,0,0-.37-3.78A9.77,9.77,0,0,0,312,30.36,7.18,7.18,0,0,0,309.57,28a7.32,7.32,0,0,0-3.74-.89,7.16,7.16,0,0,0-3.72.89,7.27,7.27,0,0,0-2.39,2.32,9.77,9.77,0,0,0-1.27,3.29,19.85,19.85,0,0,0-.37,3.78A19.2,19.2,0,0,0,298.45,41.17Z"/>
            <path class="cls-2"
                  d="M358.73,9.18V32.91l11.08-11.53h10.41L368.14,33.15l13.45,20.26H370.93L362.14,39.1l-3.41,3.28v11h-8.8V9.18Z"/>
            <path class="cls-2"
                  d="M388.09,45.45a5.17,5.17,0,0,0,1.51,1.67,6.73,6.73,0,0,0,2.14,1,9.92,9.92,0,0,0,2.51.31,9,9,0,0,0,1.95-.22,6.54,6.54,0,0,0,1.86-.68,4.14,4.14,0,0,0,1.39-1.24,3.24,3.24,0,0,0,.56-2c0-1.32-.88-2.31-2.63-3a53.14,53.14,0,0,0-7.34-2c-1.28-.29-2.53-.63-3.75-1A12.68,12.68,0,0,1,383,36.78a7.45,7.45,0,0,1-2.29-2.42,6.83,6.83,0,0,1-.87-3.56,9.58,9.58,0,0,1,1.21-5.08,8.86,8.86,0,0,1,3.19-3.13A14,14,0,0,1,388.74,21a27.4,27.4,0,0,1,5.07-.46,25.37,25.37,0,0,1,5.05.49,13.26,13.26,0,0,1,4.37,1.68,10,10,0,0,1,3.19,3.12,10.55,10.55,0,0,1,1.52,4.93h-8.36a3.87,3.87,0,0,0-1.92-3.44,8.78,8.78,0,0,0-4.09-.9,15.47,15.47,0,0,0-1.61.09,5.47,5.47,0,0,0-1.58.41,3.08,3.08,0,0,0-1.21.9,2.34,2.34,0,0,0-.49,1.57,2.38,2.38,0,0,0,.86,1.92,6.62,6.62,0,0,0,2.26,1.21,28.55,28.55,0,0,0,3.19.84q1.8.38,3.66.81a34.94,34.94,0,0,1,3.74,1.05,12.24,12.24,0,0,1,3.25,1.64,7.87,7.87,0,0,1,2.3,2.54,7.43,7.43,0,0,1,.87,3.75,9.72,9.72,0,0,1-4.59,8.73,13.5,13.5,0,0,1-4.67,1.83,27.44,27.44,0,0,1-5.36.52,26.59,26.59,0,0,1-5.45-.55A14.24,14.24,0,0,1,384,51.8a10.17,10.17,0,0,1-4.86-8.8h8.36A4.76,4.76,0,0,0,388.09,45.45Z"/>
            <path class="cls-2"
                  d="M241.93,46.84a4.35,4.35,0,0,1-3-.74,4.35,4.35,0,0,1-.74-3V27.27h4.91l3-5.89h-7.9v-9.6h-8.8v9.6H225l-3,5.88h7.39V46.16a8.13,8.13,0,0,0,.81,3.9,5.74,5.74,0,0,0,2.2,2.3,9.27,9.27,0,0,0,3.22,1.08,25.16,25.16,0,0,0,3.87.28c.87,0,1.75,0,2.66-.06a21.4,21.4,0,0,0,2.48-.25V46.59a10.42,10.42,0,0,1-1.3.19C242.9,46.82,242.43,46.84,241.93,46.84Z"/>
            <path class="cls-2"
                  d="M52.27,46.84a4.36,4.36,0,0,1-3-.74,4.35,4.35,0,0,1-.74-3V27.27h4.53l3-5.89H48.55v-9.6H39.76v9.6H35.35l-3,5.88h7.4V46.16a8.14,8.14,0,0,0,.8,3.9,5.81,5.81,0,0,0,2.2,2.3A9.34,9.34,0,0,0,46,53.44a25.16,25.16,0,0,0,3.87.28c.87,0,1.76,0,2.66-.06A21.4,21.4,0,0,0,55,53.41V46.59a10.42,10.42,0,0,1-1.3.19C53.24,46.82,52.76,46.84,52.27,46.84Z"/>
            <path class="cls-2"
                  d="M343.07,20.52c-7.39,0-10.22,6.81-10.22,6.81h-.12V21.38h-8.36v32h8.79V40h0c0-7.8,1.52-11.28,8.17-11.28a7.19,7.19,0,0,1,3.44.82l3.77-7.4A9.88,9.88,0,0,0,343.07,20.52Z"/>
            <polygon class="cls-2"
                     points="281.9 21.39 276.01 43.06 275.89 43.06 270.44 21.39 261.89 21.39 256.56 43.13 256.44 43.13 250.56 21.39 244.83 32.62 251.43 53.41 260.53 53.41 265.98 31.91 266.1 31.91 271.8 53.41 280.85 53.41 290.94 21.39 281.9 21.39"/>
        </g>
    </g>
</svg>
